<?xml version="1.0" encoding="UTF-8"?>
    <svg width="32" height="32" display="block" fill="none" style="position:relative" viewBox="0 0 24 24" xmlns="http://www.w3.org/2000/svg">
    <path d="m12 2c-5.5228 0-10 4.4772-10 10 0 1.4594 0.312 2.8433 0.87198 4.0907 0.22618 0.5038 0.00109 1.0956-0.50275 1.3218-0.50385 0.2262-1.0956 0.0011-1.3218-0.5027-0.67335-1.5-1.0474-3.1626-1.0474-4.9098 0-6.6274 5.3726-12 12-12 6.6274 0 12 5.3726 12 12 0 6.6274-5.3726 12-12 12-2.8907 0-5.5451-1.0234-7.6166-2.7267-0.42659-0.3507-0.48807-0.9809-0.13731-1.4075s0.98093-0.4881 1.4075-0.1373c1.7268 1.4198 3.9358 2.2715 6.3464 2.2715 5.5228 0 10-4.4772 10-10 0-5.5228-4.4772-10-10-10z" fill="currentColor" clipRule="evenodd" dataDarkreaderInlineFill="" fillRule="evenodd"/>
</svg>
